<mxfile host="Electron" modified="2023-11-12T09:03:46.667Z" agent="Mozilla/5.0 (Windows NT 10.0; Win64; x64) AppleWebKit/537.36 (KHTML, like Gecko) draw.io/22.0.3 Chrome/114.0.5735.289 Electron/25.8.4 Safari/537.36" etag="Tujo-lHonh5mwcoukWI1" version="22.0.3" type="device">
  <diagram name="Page-1" id="58cdce13-f638-feb5-8d6f-7d28b1aa9fa0">
    <mxGraphModel dx="754" dy="904" grid="1" gridSize="10" guides="1" tooltips="1" connect="1" arrows="1" fold="1" page="1" pageScale="1" pageWidth="1100" pageHeight="850" background="none" math="0" shadow="0">
      <root>
        <mxCell id="0" />
        <mxCell id="1" parent="0" />
        <mxCell id="8aed9DPxx_IMozLmUdM0-2" value="FPGA RISC-V&lt;br&gt;Out-of-Order Execution&lt;br&gt;CPU" style="shape=umlFrame;whiteSpace=wrap;html=1;rounded=1;shadow=0;comic=0;labelBackgroundColor=none;strokeWidth=1;fontFamily=Verdana;fontSize=12;align=center;width=170;height=60;fillColor=#09555B;strokeColor=#BAC8D3;fontColor=#EEEEEE;movable=1;resizable=1;rotatable=1;deletable=1;editable=1;locked=0;connectable=1;textOpacity=80;" vertex="1" parent="1">
          <mxGeometry x="20" y="85" width="770" height="680" as="geometry" />
        </mxCell>
        <mxCell id="2a3bc250acf0617d-7" value="Main Computaion" style="swimlane;whiteSpace=wrap;html=1;rounded=1;shadow=0;comic=0;labelBackgroundColor=none;strokeWidth=1;fontFamily=Verdana;fontSize=12;align=center;arcSize=15;startSize=20;movable=1;resizable=1;rotatable=1;deletable=1;editable=1;locked=0;connectable=1;container=0;fillColor=none;gradientColor=none;dashed=1;dashPattern=8 8;perimeterSpacing=0;opacity=50;textOpacity=60;swimlaneLine=0;" parent="1" vertex="1">
          <mxGeometry x="220" y="280" width="520" height="380" as="geometry">
            <mxRectangle x="220" y="280" width="110" height="30" as="alternateBounds" />
          </mxGeometry>
        </mxCell>
        <mxCell id="8aed9DPxx_IMozLmUdM0-8" value="" style="endArrow=block;html=1;rounded=0;labelBackgroundColor=default;strokeColor=#59B00C;strokeWidth=3;align=center;verticalAlign=middle;fontFamily=Helvetica;fontSize=11;fontColor=default;fillColor=#fa6800;shape=connector;exitX=0.5;exitY=1;exitDx=0;exitDy=0;endFill=0;opacity=80;movable=1;resizable=1;rotatable=1;deletable=1;editable=1;locked=0;connectable=1;" edge="1" parent="2a3bc250acf0617d-7">
          <mxGeometry width="50" height="50" relative="1" as="geometry">
            <mxPoint x="271" y="360" as="sourcePoint" />
            <mxPoint x="271" y="400" as="targetPoint" />
            <Array as="points" />
          </mxGeometry>
        </mxCell>
        <mxCell id="8aed9DPxx_IMozLmUdM0-4" style="edgeStyle=none;shape=connector;rounded=0;orthogonalLoop=1;jettySize=auto;html=1;entryX=0.5;entryY=1;entryDx=0;entryDy=0;labelBackgroundColor=default;strokeColor=#006EAF;strokeWidth=3;align=center;verticalAlign=middle;fontFamily=Helvetica;fontSize=11;fontColor=default;startArrow=block;startFill=1;endArrow=none;endFill=0;fillColor=#1ba1e2;movable=1;resizable=1;rotatable=1;deletable=1;editable=1;locked=0;connectable=1;" edge="1" parent="2a3bc250acf0617d-7">
          <mxGeometry relative="1" as="geometry">
            <mxPoint x="268" y="400" as="sourcePoint" />
            <mxPoint x="268" y="360" as="targetPoint" />
          </mxGeometry>
        </mxCell>
        <mxCell id="8aed9DPxx_IMozLmUdM0-3" style="edgeStyle=none;shape=connector;rounded=0;orthogonalLoop=1;jettySize=auto;html=1;entryX=0.5;entryY=1;entryDx=0;entryDy=0;labelBackgroundColor=default;strokeColor=#006EAF;strokeWidth=3;align=center;verticalAlign=middle;fontFamily=Helvetica;fontSize=11;fontColor=default;startArrow=none;startFill=0;endArrow=block;endFill=1;fillColor=#1ba1e2;movable=1;resizable=1;rotatable=1;deletable=1;editable=1;locked=0;connectable=1;" edge="1" parent="2a3bc250acf0617d-7">
          <mxGeometry relative="1" as="geometry">
            <mxPoint x="231" y="400" as="sourcePoint" />
            <mxPoint x="231" y="360" as="targetPoint" />
          </mxGeometry>
        </mxCell>
        <mxCell id="M6wExi45jfk26VPY3nlF-91" style="edgeStyle=none;shape=connector;rounded=0;orthogonalLoop=1;jettySize=auto;html=1;labelBackgroundColor=default;strokeColor=#59B00C;strokeWidth=3;align=center;verticalAlign=middle;fontFamily=Helvetica;fontSize=11;fontColor=default;startArrow=none;startFill=0;endArrow=block;endFill=0;fillColor=#6d8764;opacity=80;movable=1;resizable=1;rotatable=1;deletable=1;editable=1;locked=0;connectable=1;" parent="2a3bc250acf0617d-7" edge="1">
          <mxGeometry relative="1" as="geometry">
            <mxPoint x="231" y="400" as="sourcePoint" />
            <mxPoint x="231" y="360" as="targetPoint" />
          </mxGeometry>
        </mxCell>
        <mxCell id="M6wExi45jfk26VPY3nlF-75" value="" style="endArrow=block;html=1;rounded=0;labelBackgroundColor=default;strokeColor=#C73500;strokeWidth=3;align=center;verticalAlign=middle;fontFamily=Helvetica;fontSize=11;fontColor=default;fillColor=#fa6800;shape=connector;exitX=0.5;exitY=1;exitDx=0;exitDy=0;endFill=0;opacity=80;movable=1;resizable=1;rotatable=1;deletable=1;editable=1;locked=0;connectable=1;" parent="2a3bc250acf0617d-7" edge="1">
          <mxGeometry width="50" height="50" relative="1" as="geometry">
            <mxPoint x="268" y="360" as="sourcePoint" />
            <mxPoint x="268" y="400" as="targetPoint" />
            <Array as="points" />
          </mxGeometry>
        </mxCell>
        <mxCell id="8aed9DPxx_IMozLmUdM0-9" style="edgeStyle=none;shape=connector;rounded=0;orthogonalLoop=1;jettySize=auto;html=1;labelBackgroundColor=default;strokeColor=#006EAF;strokeWidth=3;align=center;verticalAlign=middle;fontFamily=Helvetica;fontSize=11;fontColor=default;startArrow=none;startFill=0;endArrow=block;endFill=1;fillColor=#1ba1e2;movable=1;resizable=1;rotatable=1;deletable=1;editable=1;locked=0;connectable=1;" edge="1" parent="1">
          <mxGeometry relative="1" as="geometry">
            <mxPoint x="520" y="350" as="sourcePoint" />
            <mxPoint x="560" y="350" as="targetPoint" />
          </mxGeometry>
        </mxCell>
        <mxCell id="8aed9DPxx_IMozLmUdM0-7" value="" style="endArrow=block;html=1;rounded=0;labelBackgroundColor=default;strokeColor=#59B00C;strokeWidth=3;align=center;verticalAlign=middle;fontFamily=Helvetica;fontSize=11;fontColor=default;fillColor=#fa6800;shape=connector;exitX=0.6;exitY=0.875;exitDx=0;exitDy=0;endFill=0;opacity=80;exitPerimeter=0;movable=1;resizable=1;rotatable=1;deletable=1;editable=1;locked=0;connectable=1;" edge="1" parent="1">
          <mxGeometry width="50" height="50" relative="1" as="geometry">
            <mxPoint x="623" y="393" as="sourcePoint" />
            <mxPoint x="520" y="603" as="targetPoint" />
            <Array as="points">
              <mxPoint x="623" y="603" />
            </Array>
          </mxGeometry>
        </mxCell>
        <mxCell id="8aed9DPxx_IMozLmUdM0-5" value="" style="endArrow=block;html=1;rounded=0;labelBackgroundColor=default;strokeColor=#59B00C;strokeWidth=3;align=center;verticalAlign=middle;fontFamily=Helvetica;fontSize=11;fontColor=default;fillColor=#e3c800;shape=connector;endFill=0;opacity=80;exitX=0.1;exitY=0.375;exitDx=0;exitDy=0;exitPerimeter=0;movable=1;resizable=1;rotatable=1;deletable=1;editable=1;locked=0;connectable=1;" edge="1" parent="1">
          <mxGeometry width="50" height="50" relative="1" as="geometry">
            <mxPoint x="427" y="593" as="sourcePoint" />
            <mxPoint x="420" y="363" as="targetPoint" />
            <Array as="points">
              <mxPoint x="397" y="593" />
              <mxPoint x="397" y="363" />
            </Array>
          </mxGeometry>
        </mxCell>
        <mxCell id="M6wExi45jfk26VPY3nlF-35" style="edgeStyle=none;shape=connector;rounded=0;orthogonalLoop=1;jettySize=auto;html=1;entryX=0.5;entryY=0;entryDx=0;entryDy=0;labelBackgroundColor=default;strokeColor=#006EAF;strokeWidth=3;align=center;verticalAlign=middle;fontFamily=Helvetica;fontSize=11;fontColor=default;startArrow=block;startFill=1;endArrow=block;endFill=1;fillColor=#1ba1e2;movable=1;resizable=1;rotatable=1;deletable=1;editable=1;locked=0;connectable=1;" parent="1" source="382b91b5511bd0f7-6" target="M6wExi45jfk26VPY3nlF-34" edge="1">
          <mxGeometry relative="1" as="geometry">
            <Array as="points">
              <mxPoint x="150" y="230" />
            </Array>
          </mxGeometry>
        </mxCell>
        <mxCell id="M6wExi45jfk26VPY3nlF-29" style="edgeStyle=none;shape=connector;rounded=0;orthogonalLoop=1;jettySize=auto;html=1;entryX=0.5;entryY=0;entryDx=0;entryDy=0;labelBackgroundColor=default;strokeColor=#006EAF;strokeWidth=3;align=center;verticalAlign=middle;fontFamily=Helvetica;fontSize=11;fontColor=default;startArrow=block;startFill=1;endArrow=block;endFill=1;fillColor=#1ba1e2;movable=1;resizable=1;rotatable=1;deletable=1;editable=1;locked=0;connectable=1;" parent="1" source="M6wExi45jfk26VPY3nlF-1" target="M6wExi45jfk26VPY3nlF-2" edge="1">
          <mxGeometry relative="1" as="geometry" />
        </mxCell>
        <mxCell id="M6wExi45jfk26VPY3nlF-1" value="&lt;font style=&quot;font-size: 24px;&quot;&gt;Memory&lt;/font&gt;" style="rounded=1;whiteSpace=wrap;html=1;arcSize=24;fillColor=#031C21;strokeColor=#BAC8D3;shadow=0;comic=0;labelBackgroundColor=none;fontFamily=Verdana;fontSize=12;fontColor=#EEEEEE;align=center;fontStyle=1;movable=1;resizable=1;rotatable=1;deletable=1;editable=1;locked=0;connectable=1;textOpacity=40;" parent="1" vertex="1">
          <mxGeometry x="260" y="120" width="420" height="60" as="geometry" />
        </mxCell>
        <mxCell id="M6wExi45jfk26VPY3nlF-30" style="edgeStyle=none;shape=connector;rounded=0;orthogonalLoop=1;jettySize=auto;html=1;entryX=1;entryY=0.5;entryDx=0;entryDy=0;labelBackgroundColor=default;strokeColor=#006EAF;strokeWidth=3;align=center;verticalAlign=middle;fontFamily=Helvetica;fontSize=11;fontColor=default;startArrow=block;startFill=1;endArrow=block;endFill=1;fillColor=#1ba1e2;movable=1;resizable=1;rotatable=1;deletable=1;editable=1;locked=0;connectable=1;" parent="1" source="M6wExi45jfk26VPY3nlF-2" target="382b91b5511bd0f7-6" edge="1">
          <mxGeometry relative="1" as="geometry" />
        </mxCell>
        <mxCell id="M6wExi45jfk26VPY3nlF-61" style="edgeStyle=none;shape=connector;rounded=0;orthogonalLoop=1;jettySize=auto;html=1;labelBackgroundColor=default;strokeColor=#006EAF;strokeWidth=3;align=center;verticalAlign=middle;fontFamily=Helvetica;fontSize=11;fontColor=default;startArrow=block;startFill=1;endArrow=block;endFill=1;fillColor=#1ba1e2;movable=1;resizable=1;rotatable=1;deletable=1;editable=1;locked=0;connectable=1;" parent="1" source="M6wExi45jfk26VPY3nlF-3" edge="1">
          <mxGeometry relative="1" as="geometry">
            <mxPoint x="520" y="489" as="targetPoint" />
            <Array as="points">
              <mxPoint x="700" y="230" />
              <mxPoint x="700" y="490" />
            </Array>
          </mxGeometry>
        </mxCell>
        <mxCell id="M6wExi45jfk26VPY3nlF-28" value="" style="endArrow=block;startArrow=block;html=1;rounded=0;strokeColor=#006EAF;entryX=1;entryY=0.5;entryDx=0;entryDy=0;exitX=0;exitY=0.5;exitDx=0;exitDy=0;fillColor=#1ba1e2;strokeWidth=3;endFill=1;startFill=1;movable=1;resizable=1;rotatable=1;deletable=1;editable=1;locked=0;connectable=1;" parent="1" source="M6wExi45jfk26VPY3nlF-3" target="M6wExi45jfk26VPY3nlF-2" edge="1">
          <mxGeometry width="50" height="50" relative="1" as="geometry">
            <mxPoint x="430" y="300" as="sourcePoint" />
            <mxPoint x="480" y="250" as="targetPoint" />
          </mxGeometry>
        </mxCell>
        <mxCell id="M6wExi45jfk26VPY3nlF-33" style="edgeStyle=none;shape=connector;rounded=0;orthogonalLoop=1;jettySize=auto;html=1;entryX=0.5;entryY=0;entryDx=0;entryDy=0;labelBackgroundColor=default;strokeColor=#006EAF;strokeWidth=3;align=center;verticalAlign=middle;fontFamily=Helvetica;fontSize=11;fontColor=default;startArrow=block;startFill=1;endArrow=block;endFill=1;fillColor=#1ba1e2;movable=1;resizable=1;rotatable=1;deletable=1;editable=1;locked=0;connectable=1;" parent="1" source="382b91b5511bd0f7-6" target="M6wExi45jfk26VPY3nlF-32" edge="1">
          <mxGeometry relative="1" as="geometry" />
        </mxCell>
        <mxCell id="M6wExi45jfk26VPY3nlF-36" style="edgeStyle=none;shape=connector;rounded=0;orthogonalLoop=1;jettySize=auto;html=1;entryX=0;entryY=0.5;entryDx=0;entryDy=0;labelBackgroundColor=default;strokeColor=#006EAF;strokeWidth=3;align=center;verticalAlign=middle;fontFamily=Helvetica;fontSize=11;fontColor=default;startArrow=block;startFill=1;endArrow=block;endFill=1;fillColor=#1ba1e2;movable=1;resizable=1;rotatable=1;deletable=1;editable=1;locked=0;connectable=1;" parent="1" source="M6wExi45jfk26VPY3nlF-34" target="M6wExi45jfk26VPY3nlF-32" edge="1">
          <mxGeometry relative="1" as="geometry" />
        </mxCell>
        <mxCell id="M6wExi45jfk26VPY3nlF-55" style="edgeStyle=none;shape=connector;rounded=0;orthogonalLoop=1;jettySize=auto;html=1;entryX=0.5;entryY=1;entryDx=0;entryDy=0;labelBackgroundColor=default;strokeColor=#006EAF;strokeWidth=3;align=center;verticalAlign=middle;fontFamily=Helvetica;fontSize=11;fontColor=default;startArrow=none;startFill=0;endArrow=block;endFill=1;fillColor=#1ba1e2;movable=1;resizable=1;rotatable=1;deletable=1;editable=1;locked=0;connectable=1;" parent="1" source="M6wExi45jfk26VPY3nlF-44" target="M6wExi45jfk26VPY3nlF-43" edge="1">
          <mxGeometry relative="1" as="geometry" />
        </mxCell>
        <mxCell id="M6wExi45jfk26VPY3nlF-54" style="edgeStyle=none;shape=connector;rounded=0;orthogonalLoop=1;jettySize=auto;html=1;entryX=0.5;entryY=1;entryDx=0;entryDy=0;labelBackgroundColor=default;strokeColor=#006EAF;strokeWidth=3;align=center;verticalAlign=middle;fontFamily=Helvetica;fontSize=11;fontColor=default;startArrow=block;startFill=1;endArrow=block;endFill=1;fillColor=#1ba1e2;movable=1;resizable=1;rotatable=1;deletable=1;editable=1;locked=0;connectable=1;" parent="1" source="M6wExi45jfk26VPY3nlF-42" target="M6wExi45jfk26VPY3nlF-44" edge="1">
          <mxGeometry relative="1" as="geometry" />
        </mxCell>
        <mxCell id="M6wExi45jfk26VPY3nlF-60" style="edgeStyle=none;shape=connector;rounded=0;orthogonalLoop=1;jettySize=auto;html=1;entryX=0;entryY=0.5;entryDx=0;entryDy=0;labelBackgroundColor=default;strokeColor=#006EAF;strokeWidth=3;align=center;verticalAlign=middle;fontFamily=Helvetica;fontSize=11;fontColor=default;startArrow=none;startFill=0;endArrow=block;endFill=1;fillColor=#1ba1e2;exitX=-0.005;exitY=0.374;exitDx=0;exitDy=0;exitPerimeter=0;movable=1;resizable=1;rotatable=1;deletable=1;editable=1;locked=0;connectable=1;" parent="1" source="M6wExi45jfk26VPY3nlF-42" target="M6wExi45jfk26VPY3nlF-43" edge="1">
          <mxGeometry relative="1" as="geometry">
            <Array as="points">
              <mxPoint x="400" y="590" />
              <mxPoint x="400" y="360" />
            </Array>
          </mxGeometry>
        </mxCell>
        <mxCell id="M6wExi45jfk26VPY3nlF-57" style="edgeStyle=none;shape=connector;rounded=0;orthogonalLoop=1;jettySize=auto;html=1;entryX=1;entryY=0.5;entryDx=0;entryDy=0;labelBackgroundColor=default;strokeColor=#006EAF;strokeWidth=3;align=center;verticalAlign=middle;fontFamily=Helvetica;fontSize=11;fontColor=default;startArrow=none;startFill=0;endArrow=block;endFill=1;fillColor=#1ba1e2;exitX=0.6;exitY=0.75;exitDx=0;exitDy=0;exitPerimeter=0;movable=1;resizable=1;rotatable=1;deletable=1;editable=1;locked=0;connectable=1;" parent="1" source="M6wExi45jfk26VPY3nlF-45" target="M6wExi45jfk26VPY3nlF-42" edge="1">
          <mxGeometry relative="1" as="geometry">
            <Array as="points">
              <mxPoint x="620" y="600" />
            </Array>
          </mxGeometry>
        </mxCell>
        <mxCell id="M6wExi45jfk26VPY3nlF-58" style="edgeStyle=none;shape=connector;rounded=0;orthogonalLoop=1;jettySize=auto;html=1;labelBackgroundColor=default;strokeColor=#006EAF;strokeWidth=3;align=center;verticalAlign=middle;fontFamily=Helvetica;fontSize=11;fontColor=default;startArrow=none;startFill=0;endArrow=block;endFill=1;fillColor=#1ba1e2;exitX=0.4;exitY=0.75;exitDx=0;exitDy=0;exitPerimeter=0;movable=1;resizable=1;rotatable=1;deletable=1;editable=1;locked=0;connectable=1;" parent="1" source="M6wExi45jfk26VPY3nlF-45" edge="1">
          <mxGeometry relative="1" as="geometry">
            <mxPoint x="520" y="470" as="targetPoint" />
            <Array as="points">
              <mxPoint x="600" y="470" />
            </Array>
          </mxGeometry>
        </mxCell>
        <mxCell id="M6wExi45jfk26VPY3nlF-46" style="edgeStyle=none;shape=connector;rounded=0;orthogonalLoop=1;jettySize=auto;html=1;labelBackgroundColor=default;strokeColor=#006EAF;strokeWidth=3;align=center;verticalAlign=middle;fontFamily=Helvetica;fontSize=11;fontColor=default;startArrow=block;startFill=1;endArrow=none;endFill=0;fillColor=#1ba1e2;exitX=1;exitY=0.5;exitDx=0;exitDy=0;entryX=0.2;entryY=0.125;entryDx=0;entryDy=0;entryPerimeter=0;movable=1;resizable=1;rotatable=1;deletable=1;editable=1;locked=0;connectable=1;" parent="1" source="M6wExi45jfk26VPY3nlF-32" target="M6wExi45jfk26VPY3nlF-42" edge="1">
          <mxGeometry relative="1" as="geometry">
            <mxPoint x="340" y="490" as="sourcePoint" />
            <mxPoint x="560" y="570" as="targetPoint" />
            <Array as="points">
              <mxPoint x="380" y="340" />
              <mxPoint x="380" y="570" />
            </Array>
          </mxGeometry>
        </mxCell>
        <mxCell id="M6wExi45jfk26VPY3nlF-52" value="" style="endArrow=oval;html=1;rounded=0;labelBackgroundColor=default;strokeColor=#006EAF;strokeWidth=3;align=center;verticalAlign=middle;fontFamily=Helvetica;fontSize=11;fontColor=default;fillColor=#1ba1e2;shape=connector;exitX=0;exitY=0.5;exitDx=0;exitDy=0;endFill=1;movable=1;resizable=1;rotatable=1;deletable=1;editable=1;locked=0;connectable=1;" parent="1" source="M6wExi45jfk26VPY3nlF-44" edge="1">
          <mxGeometry width="50" height="50" relative="1" as="geometry">
            <mxPoint x="470" y="470" as="sourcePoint" />
            <mxPoint x="380" y="480" as="targetPoint" />
          </mxGeometry>
        </mxCell>
        <mxCell id="M6wExi45jfk26VPY3nlF-38" style="edgeStyle=none;shape=connector;rounded=0;orthogonalLoop=1;jettySize=auto;html=1;entryX=0.5;entryY=1;entryDx=0;entryDy=0;labelBackgroundColor=default;strokeColor=#006EAF;strokeWidth=3;align=center;verticalAlign=middle;fontFamily=Helvetica;fontSize=11;fontColor=default;startArrow=block;startFill=1;endArrow=none;endFill=0;fillColor=#1ba1e2;movable=1;resizable=1;rotatable=1;deletable=1;editable=1;locked=0;connectable=1;" parent="1" source="M6wExi45jfk26VPY3nlF-37" target="M6wExi45jfk26VPY3nlF-32" edge="1">
          <mxGeometry relative="1" as="geometry" />
        </mxCell>
        <mxCell id="M6wExi45jfk26VPY3nlF-64" value="" style="endArrow=oval;html=1;rounded=0;labelBackgroundColor=default;strokeColor=#006EAF;strokeWidth=3;align=center;verticalAlign=middle;fontFamily=Helvetica;fontSize=11;fontColor=default;fillColor=#1ba1e2;shape=connector;exitX=0;exitY=0.75;exitDx=0;exitDy=0;endFill=1;startArrow=block;startFill=1;movable=1;resizable=1;rotatable=1;deletable=1;editable=1;locked=0;connectable=1;" parent="1" source="M6wExi45jfk26VPY3nlF-44" edge="1">
          <mxGeometry width="50" height="50" relative="1" as="geometry">
            <mxPoint x="430" y="490" as="sourcePoint" />
            <mxPoint x="400" y="500" as="targetPoint" />
          </mxGeometry>
        </mxCell>
        <mxCell id="M6wExi45jfk26VPY3nlF-65" value="" style="endArrow=block;html=1;rounded=0;labelBackgroundColor=default;strokeColor=#FFD800;strokeWidth=3;align=center;verticalAlign=middle;fontFamily=Helvetica;fontSize=11;fontColor=default;fillColor=#e3c800;shape=connector;exitX=0.5;exitY=1;exitDx=0;exitDy=0;entryX=0.5;entryY=0;entryDx=0;entryDy=0;endFill=0;opacity=80;movable=1;resizable=1;rotatable=1;deletable=1;editable=1;locked=0;connectable=1;" parent="1" source="M6wExi45jfk26VPY3nlF-1" target="M6wExi45jfk26VPY3nlF-2" edge="1">
          <mxGeometry width="50" height="50" relative="1" as="geometry">
            <mxPoint x="370" y="440" as="sourcePoint" />
            <mxPoint x="420" y="390" as="targetPoint" />
          </mxGeometry>
        </mxCell>
        <mxCell id="M6wExi45jfk26VPY3nlF-67" value="" style="endArrow=block;html=1;rounded=0;labelBackgroundColor=default;strokeColor=#FFD800;strokeWidth=3;align=center;verticalAlign=middle;fontFamily=Helvetica;fontSize=11;fontColor=default;fillColor=#e3c800;shape=connector;exitX=0;exitY=0.5;exitDx=0;exitDy=0;entryX=1;entryY=0.5;entryDx=0;entryDy=0;endFill=0;opacity=80;movable=1;resizable=1;rotatable=1;deletable=1;editable=1;locked=0;connectable=1;" parent="1" source="M6wExi45jfk26VPY3nlF-2" target="382b91b5511bd0f7-6" edge="1">
          <mxGeometry width="50" height="50" relative="1" as="geometry">
            <mxPoint x="480" y="190" as="sourcePoint" />
            <mxPoint x="480" y="220" as="targetPoint" />
          </mxGeometry>
        </mxCell>
        <mxCell id="M6wExi45jfk26VPY3nlF-68" value="" style="endArrow=block;html=1;rounded=0;labelBackgroundColor=default;strokeColor=#FFD800;strokeWidth=3;align=center;verticalAlign=middle;fontFamily=Helvetica;fontSize=11;fontColor=default;fillColor=#e3c800;shape=connector;exitX=0.5;exitY=1;exitDx=0;exitDy=0;entryX=0.5;entryY=0;entryDx=0;entryDy=0;endFill=0;opacity=80;movable=1;resizable=1;rotatable=1;deletable=1;editable=1;locked=0;connectable=1;" parent="1" source="382b91b5511bd0f7-6" target="M6wExi45jfk26VPY3nlF-32" edge="1">
          <mxGeometry width="50" height="50" relative="1" as="geometry">
            <mxPoint x="490" y="200" as="sourcePoint" />
            <mxPoint x="490" y="230" as="targetPoint" />
          </mxGeometry>
        </mxCell>
        <mxCell id="M6wExi45jfk26VPY3nlF-69" value="" style="endArrow=block;html=1;rounded=0;labelBackgroundColor=default;strokeColor=#FFD800;strokeWidth=3;align=center;verticalAlign=middle;fontFamily=Helvetica;fontSize=11;fontColor=default;fillColor=#e3c800;shape=connector;entryX=0.5;entryY=0;entryDx=0;entryDy=0;endFill=0;opacity=80;movable=1;resizable=1;rotatable=1;deletable=1;editable=1;locked=0;connectable=1;" parent="1" target="M6wExi45jfk26VPY3nlF-37" edge="1">
          <mxGeometry width="50" height="50" relative="1" as="geometry">
            <mxPoint x="310" y="360" as="sourcePoint" />
            <mxPoint x="320" y="330" as="targetPoint" />
          </mxGeometry>
        </mxCell>
        <mxCell id="M6wExi45jfk26VPY3nlF-71" value="" style="endArrow=block;html=1;rounded=0;labelBackgroundColor=default;strokeColor=#FFD800;strokeWidth=3;align=center;verticalAlign=middle;fontFamily=Helvetica;fontSize=11;fontColor=default;fillColor=#e3c800;shape=connector;entryX=0;entryY=0.5;entryDx=0;entryDy=0;endFill=0;opacity=80;exitX=0.1;exitY=0.375;exitDx=0;exitDy=0;exitPerimeter=0;movable=1;resizable=1;rotatable=1;deletable=1;editable=1;locked=0;connectable=1;" parent="1" source="M6wExi45jfk26VPY3nlF-42" target="M6wExi45jfk26VPY3nlF-43" edge="1">
          <mxGeometry width="50" height="50" relative="1" as="geometry">
            <mxPoint x="421" y="592" as="sourcePoint" />
            <mxPoint x="340" y="350" as="targetPoint" />
            <Array as="points">
              <mxPoint x="400" y="590" />
              <mxPoint x="400" y="360" />
            </Array>
          </mxGeometry>
        </mxCell>
        <mxCell id="M6wExi45jfk26VPY3nlF-74" value="" style="endArrow=block;html=1;rounded=0;labelBackgroundColor=default;strokeColor=#C73500;strokeWidth=3;align=center;verticalAlign=middle;fontFamily=Helvetica;fontSize=11;fontColor=default;fillColor=#fa6800;shape=connector;exitX=0.6;exitY=0.875;exitDx=0;exitDy=0;entryX=1;entryY=0.5;entryDx=0;entryDy=0;endFill=0;opacity=80;exitPerimeter=0;movable=1;resizable=1;rotatable=1;deletable=1;editable=1;locked=0;connectable=1;" parent="1" source="M6wExi45jfk26VPY3nlF-45" target="M6wExi45jfk26VPY3nlF-42" edge="1">
          <mxGeometry width="50" height="50" relative="1" as="geometry">
            <mxPoint x="440" y="250" as="sourcePoint" />
            <mxPoint x="380" y="250" as="targetPoint" />
            <Array as="points">
              <mxPoint x="620" y="600" />
            </Array>
          </mxGeometry>
        </mxCell>
        <mxCell id="M6wExi45jfk26VPY3nlF-76" style="edgeStyle=none;shape=connector;rounded=0;orthogonalLoop=1;jettySize=auto;html=1;entryX=0;entryY=0.5;entryDx=0;entryDy=0;labelBackgroundColor=default;strokeColor=#006EAF;strokeWidth=3;align=center;verticalAlign=middle;fontFamily=Helvetica;fontSize=11;fontColor=default;startArrow=none;startFill=0;endArrow=block;endFill=1;fillColor=#1ba1e2;movable=1;resizable=1;rotatable=1;deletable=1;editable=1;locked=0;connectable=1;" parent="1" edge="1">
          <mxGeometry relative="1" as="geometry">
            <mxPoint x="130" y="580" as="sourcePoint" />
            <mxPoint x="180" y="579.71" as="targetPoint" />
          </mxGeometry>
        </mxCell>
        <mxCell id="M6wExi45jfk26VPY3nlF-77" style="edgeStyle=none;shape=connector;rounded=0;orthogonalLoop=1;jettySize=auto;html=1;entryX=0;entryY=0.5;entryDx=0;entryDy=0;labelBackgroundColor=default;strokeColor=#FFD800;strokeWidth=3;align=center;verticalAlign=middle;fontFamily=Helvetica;fontSize=11;fontColor=default;startArrow=none;startFill=0;endArrow=block;endFill=0;fillColor=#e3c800;opacity=80;movable=1;resizable=1;rotatable=1;deletable=1;editable=1;locked=0;connectable=1;" parent="1" edge="1">
          <mxGeometry relative="1" as="geometry">
            <mxPoint x="130" y="610" as="sourcePoint" />
            <mxPoint x="180" y="610" as="targetPoint" />
          </mxGeometry>
        </mxCell>
        <mxCell id="M6wExi45jfk26VPY3nlF-78" style="edgeStyle=none;shape=connector;rounded=0;orthogonalLoop=1;jettySize=auto;html=1;entryX=0;entryY=0.5;entryDx=0;entryDy=0;labelBackgroundColor=default;strokeColor=#C73500;strokeWidth=3;align=center;verticalAlign=middle;fontFamily=Helvetica;fontSize=11;fontColor=default;startArrow=none;startFill=0;endArrow=block;endFill=0;fillColor=#fa6800;opacity=80;movable=1;resizable=1;rotatable=1;deletable=1;editable=1;locked=0;connectable=1;" parent="1" edge="1">
          <mxGeometry relative="1" as="geometry">
            <mxPoint x="130" y="640" as="sourcePoint" />
            <mxPoint x="180" y="639.7099999999999" as="targetPoint" />
          </mxGeometry>
        </mxCell>
        <mxCell id="M6wExi45jfk26VPY3nlF-82" value="Wire" style="text;html=1;strokeColor=none;fillColor=none;align=right;verticalAlign=middle;whiteSpace=wrap;rounded=0;fontSize=11;fontFamily=Helvetica;fontColor=default;movable=1;resizable=1;rotatable=1;deletable=1;editable=1;locked=0;connectable=1;" parent="1" vertex="1">
          <mxGeometry x="20" y="560" width="100" height="40" as="geometry" />
        </mxCell>
        <mxCell id="M6wExi45jfk26VPY3nlF-83" value="Instruction" style="text;html=1;strokeColor=none;fillColor=none;align=right;verticalAlign=middle;whiteSpace=wrap;rounded=0;fontSize=11;fontFamily=Helvetica;fontColor=default;movable=1;resizable=1;rotatable=1;deletable=1;editable=1;locked=0;connectable=1;" parent="1" vertex="1">
          <mxGeometry x="20" y="590" width="100" height="40" as="geometry" />
        </mxCell>
        <mxCell id="M6wExi45jfk26VPY3nlF-84" value="Result" style="text;html=1;strokeColor=none;fillColor=none;align=right;verticalAlign=middle;whiteSpace=wrap;rounded=0;fontSize=11;fontFamily=Helvetica;fontColor=default;movable=1;resizable=1;rotatable=1;deletable=1;editable=1;locked=0;connectable=1;" parent="1" vertex="1">
          <mxGeometry x="20" y="620" width="100" height="40" as="geometry" />
        </mxCell>
        <mxCell id="M6wExi45jfk26VPY3nlF-85" value="A simplified diagram of the CPU structure.&lt;br&gt;&lt;br style=&quot;font-size: 13px;&quot;&gt;The highlighted path shows the flow of a calculation instruction like ADD." style="text;html=1;strokeColor=none;fillColor=none;align=left;verticalAlign=middle;whiteSpace=wrap;rounded=0;fontSize=13;fontFamily=Helvetica;fontColor=default;opacity=80;textOpacity=70;movable=1;resizable=1;rotatable=1;deletable=1;editable=1;locked=0;connectable=1;" parent="1" vertex="1">
          <mxGeometry x="60" y="425" width="140" height="125" as="geometry" />
        </mxCell>
        <mxCell id="M6wExi45jfk26VPY3nlF-86" style="edgeStyle=none;shape=connector;rounded=0;orthogonalLoop=1;jettySize=auto;html=1;entryX=0;entryY=0.5;entryDx=0;entryDy=0;labelBackgroundColor=default;strokeColor=#59B00C;strokeWidth=3;align=center;verticalAlign=middle;fontFamily=Helvetica;fontSize=11;fontColor=default;startArrow=none;startFill=0;endArrow=block;endFill=0;fillColor=#6d8764;opacity=80;movable=1;resizable=1;rotatable=1;deletable=1;editable=1;locked=0;connectable=1;" parent="1" edge="1">
          <mxGeometry relative="1" as="geometry">
            <mxPoint x="130" y="670.29" as="sourcePoint" />
            <mxPoint x="180" y="669.9999999999999" as="targetPoint" />
          </mxGeometry>
        </mxCell>
        <mxCell id="M6wExi45jfk26VPY3nlF-87" value="Renaming" style="text;html=1;strokeColor=none;fillColor=none;align=right;verticalAlign=middle;whiteSpace=wrap;rounded=0;fontSize=11;fontFamily=Helvetica;fontColor=default;movable=1;resizable=1;rotatable=1;deletable=1;editable=1;locked=0;connectable=1;" parent="1" vertex="1">
          <mxGeometry x="20" y="650" width="100" height="40" as="geometry" />
        </mxCell>
        <mxCell id="M6wExi45jfk26VPY3nlF-88" style="edgeStyle=none;shape=connector;rounded=0;orthogonalLoop=1;jettySize=auto;html=1;labelBackgroundColor=default;strokeColor=#59B00C;strokeWidth=3;align=center;verticalAlign=middle;fontFamily=Helvetica;fontSize=11;fontColor=default;startArrow=none;startFill=0;endArrow=block;endFill=0;fillColor=#6d8764;opacity=80;movable=1;resizable=1;rotatable=1;deletable=1;editable=1;locked=0;connectable=1;" parent="1" edge="1">
          <mxGeometry relative="1" as="geometry">
            <mxPoint x="300" y="480" as="sourcePoint" />
            <mxPoint x="300" y="680" as="targetPoint" />
          </mxGeometry>
        </mxCell>
        <mxCell id="M6wExi45jfk26VPY3nlF-40" style="edgeStyle=none;shape=connector;rounded=0;orthogonalLoop=1;jettySize=auto;html=1;labelBackgroundColor=default;strokeColor=#006EAF;strokeWidth=3;align=center;verticalAlign=middle;fontFamily=Helvetica;fontSize=11;fontColor=default;startArrow=none;startFill=0;endArrow=block;endFill=1;fillColor=#1ba1e2;movable=1;resizable=1;rotatable=1;deletable=1;editable=1;locked=0;connectable=1;" parent="1" edge="1">
          <mxGeometry relative="1" as="geometry">
            <mxPoint x="300" y="480" as="sourcePoint" />
            <mxPoint x="300" y="680" as="targetPoint" />
            <Array as="points" />
          </mxGeometry>
        </mxCell>
        <mxCell id="M6wExi45jfk26VPY3nlF-53" value="" style="endArrow=block;html=1;rounded=0;labelBackgroundColor=default;strokeColor=#006EAF;strokeWidth=3;align=center;verticalAlign=middle;fontFamily=Helvetica;fontSize=11;fontColor=default;fillColor=#1ba1e2;shape=connector;entryX=0;entryY=0.5;entryDx=0;entryDy=0;endFill=1;movable=1;resizable=1;rotatable=1;deletable=1;editable=1;locked=0;connectable=1;" parent="1" edge="1">
          <mxGeometry width="50" height="50" relative="1" as="geometry">
            <mxPoint x="320" y="610" as="sourcePoint" />
            <mxPoint x="420" y="610" as="targetPoint" />
          </mxGeometry>
        </mxCell>
        <mxCell id="M6wExi45jfk26VPY3nlF-70" value="" style="endArrow=block;html=1;rounded=0;labelBackgroundColor=default;strokeColor=#FFD800;strokeWidth=3;align=center;verticalAlign=middle;fontFamily=Helvetica;fontSize=11;fontColor=default;fillColor=#e3c800;shape=connector;endFill=0;opacity=80;movable=1;resizable=1;rotatable=1;deletable=1;editable=1;locked=0;connectable=1;" parent="1" edge="1">
          <mxGeometry width="50" height="50" relative="1" as="geometry">
            <mxPoint x="320" y="480" as="sourcePoint" />
            <mxPoint x="420" y="610" as="targetPoint" />
            <Array as="points">
              <mxPoint x="320" y="610" />
            </Array>
          </mxGeometry>
        </mxCell>
        <mxCell id="M6wExi45jfk26VPY3nlF-73" value="" style="endArrow=block;html=1;rounded=0;labelBackgroundColor=default;strokeColor=#FFD800;strokeWidth=3;align=center;verticalAlign=middle;fontFamily=Helvetica;fontSize=11;fontColor=default;fillColor=#e3c800;shape=connector;exitX=1;exitY=0.5;exitDx=0;exitDy=0;entryX=0;entryY=0.5;entryDx=0;entryDy=0;endFill=0;opacity=80;movable=1;resizable=1;rotatable=1;deletable=1;editable=1;locked=0;connectable=1;" parent="1" edge="1">
          <mxGeometry width="50" height="50" relative="1" as="geometry">
            <mxPoint x="520" y="350" as="sourcePoint" />
            <mxPoint x="560" y="350" as="targetPoint" />
          </mxGeometry>
        </mxCell>
        <mxCell id="M6wExi45jfk26VPY3nlF-59" style="edgeStyle=none;shape=connector;rounded=0;orthogonalLoop=1;jettySize=auto;html=1;entryX=1;entryY=0.5;entryDx=0;entryDy=0;labelBackgroundColor=default;strokeColor=#006EAF;strokeWidth=3;align=center;verticalAlign=middle;fontFamily=Helvetica;fontSize=11;fontColor=default;startArrow=none;startFill=0;endArrow=block;endFill=1;fillColor=#1ba1e2;movable=1;resizable=1;rotatable=1;deletable=1;editable=1;locked=0;connectable=1;" parent="1" edge="1">
          <mxGeometry relative="1" as="geometry">
            <mxPoint x="560" y="370" as="sourcePoint" />
            <mxPoint x="520" y="370" as="targetPoint" />
          </mxGeometry>
        </mxCell>
        <mxCell id="M6wExi45jfk26VPY3nlF-39" value="&lt;font style=&quot;font-size: 24px;&quot;&gt;Register&lt;/font&gt;" style="rounded=1;whiteSpace=wrap;html=1;arcSize=24;fillColor=#031C21;strokeColor=#BAC8D3;shadow=0;comic=0;labelBackgroundColor=none;fontFamily=Verdana;fontSize=12;fontColor=#EEEEEE;align=center;fontStyle=1;movable=1;resizable=1;rotatable=1;deletable=1;editable=1;locked=0;connectable=1;textOpacity=40;" parent="1" vertex="1">
          <mxGeometry x="260" y="680" width="420" height="60" as="geometry" />
        </mxCell>
        <mxCell id="382b91b5511bd0f7-6" value="Instruction&lt;br&gt;Cache" style="rounded=1;whiteSpace=wrap;html=1;arcSize=24;fillColor=#09555B;strokeColor=#BAC8D3;shadow=0;comic=0;labelBackgroundColor=none;fontFamily=Verdana;fontSize=12;fontColor=#C4C4C4;align=center;movable=1;resizable=1;rotatable=1;deletable=1;editable=1;locked=0;connectable=1;" parent="1" vertex="1">
          <mxGeometry x="260" y="200" width="100" height="60" as="geometry" />
        </mxCell>
        <mxCell id="M6wExi45jfk26VPY3nlF-2" value="Memory I/O&lt;br&gt;Controller" style="rounded=1;whiteSpace=wrap;html=1;arcSize=24;fillColor=#09555B;strokeColor=#BAC8D3;shadow=0;comic=0;labelBackgroundColor=none;fontFamily=Verdana;fontSize=12;fontColor=#C4C4C4;align=center;movable=1;resizable=1;rotatable=1;deletable=1;editable=1;locked=0;connectable=1;" parent="1" vertex="1">
          <mxGeometry x="420" y="210" width="100" height="40" as="geometry" />
        </mxCell>
        <mxCell id="M6wExi45jfk26VPY3nlF-3" value="Data&lt;br&gt;Cache" style="rounded=1;whiteSpace=wrap;html=1;arcSize=24;fillColor=#09555B;strokeColor=#BAC8D3;shadow=0;comic=0;labelBackgroundColor=none;fontFamily=Verdana;fontSize=12;fontColor=#C4C4C4;align=center;movable=1;resizable=1;rotatable=1;deletable=1;editable=1;locked=0;connectable=1;" parent="1" vertex="1">
          <mxGeometry x="560" y="200" width="100" height="60" as="geometry" />
        </mxCell>
        <mxCell id="M6wExi45jfk26VPY3nlF-34" value="Branch&lt;br&gt;Predictor" style="rounded=1;whiteSpace=wrap;html=1;arcSize=24;fillColor=#09555B;strokeColor=#BAC8D3;shadow=0;comic=0;labelBackgroundColor=none;fontFamily=Verdana;fontSize=12;fontColor=#C4C4C4;align=center;fontStyle=0;movable=1;resizable=1;rotatable=1;deletable=1;editable=1;locked=0;connectable=1;" parent="1" vertex="1">
          <mxGeometry x="100" y="300" width="100" height="80" as="geometry" />
        </mxCell>
        <mxCell id="M6wExi45jfk26VPY3nlF-44" value="Load/Store&lt;br style=&quot;font-size: 14px;&quot;&gt;Buffer" style="rounded=1;whiteSpace=wrap;html=1;arcSize=24;fillColor=#09555B;strokeColor=#BAC8D3;shadow=0;comic=0;labelBackgroundColor=none;fontFamily=Verdana;fontSize=14;fontColor=#EEEEEE;align=center;fontStyle=1;movable=1;resizable=1;rotatable=1;deletable=1;editable=1;locked=0;connectable=1;" parent="1" vertex="1">
          <mxGeometry x="420" y="440" width="100" height="80" as="geometry" />
        </mxCell>
        <mxCell id="M6wExi45jfk26VPY3nlF-32" value="Instruction&lt;br&gt;Fetch" style="rounded=1;whiteSpace=wrap;html=1;arcSize=24;fillColor=#09555B;strokeColor=#BAC8D3;shadow=0;comic=0;labelBackgroundColor=none;fontFamily=Verdana;fontSize=12;fontColor=#C4C4C4;align=center;fontStyle=0;movable=1;resizable=1;rotatable=1;deletable=1;editable=1;locked=0;connectable=1;" parent="1" vertex="1">
          <mxGeometry x="260" y="320" width="100" height="40" as="geometry" />
        </mxCell>
        <mxCell id="M6wExi45jfk26VPY3nlF-37" value="Issue" style="rounded=1;whiteSpace=wrap;html=1;arcSize=24;fillColor=#09555B;strokeColor=#BAC8D3;shadow=0;comic=0;labelBackgroundColor=none;fontFamily=Verdana;fontSize=14;fontColor=#EEEEEE;align=center;fontStyle=1;movable=1;resizable=1;rotatable=1;deletable=1;editable=1;locked=0;connectable=1;" parent="1" vertex="1">
          <mxGeometry x="260" y="400" width="100" height="80" as="geometry" />
        </mxCell>
        <mxCell id="M6wExi45jfk26VPY3nlF-43" value="Rserve&lt;br&gt;Station" style="rounded=1;whiteSpace=wrap;html=1;arcSize=24;fillColor=#09555B;strokeColor=#BAC8D3;shadow=0;comic=0;labelBackgroundColor=none;fontFamily=Verdana;fontSize=14;fontColor=#EEEEEE;align=center;fontStyle=1;movable=1;resizable=1;rotatable=1;deletable=1;editable=1;locked=0;connectable=1;" parent="1" vertex="1">
          <mxGeometry x="420" y="320" width="100" height="80" as="geometry" />
        </mxCell>
        <mxCell id="M6wExi45jfk26VPY3nlF-42" value="Re-Order&lt;br style=&quot;font-size: 14px;&quot;&gt;Buffer" style="rounded=1;whiteSpace=wrap;html=1;arcSize=24;fillColor=#09555B;strokeColor=#BAC8D3;shadow=0;comic=0;labelBackgroundColor=none;fontFamily=Verdana;fontSize=14;fontColor=#EEEEEE;align=center;fontStyle=1;movable=1;resizable=1;rotatable=1;deletable=1;editable=1;locked=0;connectable=1;" parent="1" vertex="1">
          <mxGeometry x="420" y="560" width="100" height="80" as="geometry" />
        </mxCell>
        <mxCell id="M6wExi45jfk26VPY3nlF-45" value="Execution" style="rounded=1;whiteSpace=wrap;html=1;arcSize=24;fillColor=#09555B;strokeColor=#BAC8D3;shadow=0;comic=0;labelBackgroundColor=none;fontFamily=Verdana;fontSize=14;fontColor=#EEEEEE;align=center;fontStyle=1;movable=1;resizable=1;rotatable=1;deletable=1;editable=1;locked=0;connectable=1;" parent="1" vertex="1">
          <mxGeometry x="560" y="320" width="100" height="80" as="geometry" />
        </mxCell>
      </root>
    </mxGraphModel>
  </diagram>
</mxfile>
